<?xml version="1.0" encoding="UTF-8" standalone="no"?>
<svg
   xmlns:dc="http://purl.org/dc/elements/1.1/"
   xmlns:cc="http://creativecommons.org/ns#"
   xmlns:rdf="http://www.w3.org/1999/02/22-rdf-syntax-ns#"
   xmlns:svg="http://www.w3.org/2000/svg"
   xmlns="http://www.w3.org/2000/svg"
   xmlns:sodipodi="http://sodipodi.sourceforge.net/DTD/sodipodi-0.dtd"
   xmlns:inkscape="http://www.inkscape.org/namespaces/inkscape"
   width="40"
   height="40"
   viewBox="0 0 10.583333 10.583334"
   version="1.1"
   id="svg8"
   inkscape:version="1.0.1 (3bc2e813f5, 2020-09-07)"
   sodipodi:docname="icons_40.svg"
   inkscape:export-filename="/home/milgra/Projects/zenmusic/res/unmute.png"
   inkscape:export-xdpi="96"
   inkscape:export-ydpi="96">
  <defs
     id="defs2" />
  <sodipodi:namedview
     id="base"
     pagecolor="#ffffff"
     bordercolor="#666666"
     borderopacity="1.0"
     inkscape:pageopacity="0.0"
     inkscape:pageshadow="2"
     inkscape:zoom="15.734375"
     inkscape:cx="14.891551"
     inkscape:cy="19.796665"
     inkscape:document-units="mm"
     inkscape:current-layer="layer5"
     inkscape:document-rotation="0"
     showgrid="true"
     units="px"
     inkscape:window-width="1914"
     inkscape:window-height="1044"
     inkscape:window-x="2"
     inkscape:window-y="32"
     inkscape:window-maximized="0"
     showguides="true"
     guidetolerance="1"
     gridtolerance="1"
     objecttolerance="1">
    <inkscape:grid
       type="xygrid"
       id="grid46" />
  </sodipodi:namedview>
  <metadata
     id="metadata5">
    <rdf:RDF>
      <cc:Work
         rdf:about="">
        <dc:format>image/svg+xml</dc:format>
        <dc:type
           rdf:resource="http://purl.org/dc/dcmitype/StillImage" />
        <dc:title></dc:title>
      </cc:Work>
    </rdf:RDF>
  </metadata>
  <g
     inkscape:groupmode="layer"
     id="layer2"
     inkscape:label="Pause"
     style="display:none">
    <rect
       style="fill:#000000;stroke-width:0.264583"
       id="rect160"
       width="1.3229166"
       height="5.2916665"
       x="6.0854168"
       y="2.6458333"
       rx="0.5"
       ry="0.5" />
    <rect
       style="fill:#000000;stroke-width:0.264583"
       id="rect160-1"
       width="1.3229166"
       height="5.2916665"
       x="3.175"
       y="2.6458333"
       rx="0.5"
       ry="0.5" />
  </g>
  <g
     inkscape:label="Play"
     inkscape:groupmode="layer"
     id="layer1"
     style="display:none">
    <path
       id="path1247"
       style="fill:#000000;fill-opacity:1;stroke-width:0.218042"
       inkscape:transform-center-x="-0.77388414"
       inkscape:transform-center-y="0.0013624308"
       d="M 4.4079714,2.5594621 A 0.68416542,0.68416542 0 0 0 3.723806,3.2436275 0.68416542,0.68416542 0 0 0 3.7986372,3.554531 C 3.7729615,3.5196504 3.745472,3.4859096 3.7264786,3.4458478 l 0.00267,3.8225963 c 0.013412,-0.03525 0.035812,-0.064332 0.054341,-0.096211 a 0.68416542,0.68416542 0 0 0 -0.037417,0.2218193 0.68416542,0.68416542 0 0 0 0.6841656,0.6841654 0.68416542,0.68416542 0 0 0 0.546976,-0.2743786 c -0.01635,0.034131 -0.027897,0.070318 -0.049887,0.1015562 L 7.5472931,5.9553459 c -0.090114,0.042035 -0.1883065,0.063924 -0.2877417,0.064141 -0.3001566,0 -0.5527847,-0.1943381 -0.6449681,-0.4632369 A 0.68416542,0.68416542 0 0 0 7.2559883,6.00256 0.68416542,0.68416542 0 0 0 7.9401537,5.3183947 0.68416542,0.68416542 0 0 0 7.4786983,4.6716445 L 4.9059512,2.7634647 c 0.00536,0.00773 0.00745,0.017028 0.012467,0.024943 A 0.68416542,0.68416542 0 0 0 4.4079714,2.5594621 Z" />
  </g>
  <g
     inkscape:groupmode="layer"
     id="layer5"
     inkscape:label="UnMute"
     style="display:inline;opacity:0.999904">
    <circle
       id="path174"
       style="fill:#000000;stroke:#000000;stroke-width:0.264583"
       cx="8.9193287"
       cy="8.2624712"
       r="0.0021789724" />
    <circle
       id="path176"
       style="fill:#000000;stroke:#000000;stroke-width:0.264583"
       cx="8.4375868"
       cy="5.9068255"
       r="0.0021789724" />
    <path
       id="path1247-7-1-3"
       style="display:inline;opacity:0.999904;fill:#cccccc;fill-opacity:1;stroke-width:0.218042"
       inkscape:transform-center-x="0.77388414"
       inkscape:transform-center-y="0.0013624308"
       d="m 6.1976721,2.5236334 a 0.68416543,0.68416543 0 0 1 0.6841656,0.6841653 0.68416543,0.68416543 0 0 1 -0.074831,0.3109035 c 0.02567,-0.034881 0.05316,-0.068621 0.07216,-0.1086832 l -0.0027,3.8225963 c -0.01341,-0.03525 -0.03581,-0.064332 -0.05434,-0.096211 a 0.68416543,0.68416543 0 0 1 0.03742,0.2218192 0.68416543,0.68416543 0 0 1 -0.6841659,0.6841654 0.68416543,0.68416543 0 0 1 -0.546976,-0.2743784 c 0.016351,0.034131 0.027897,0.070318 0.049887,0.101556 L 3.0583501,5.9195174 c 0.09011,0.042035 0.188307,0.063924 0.287742,0.064141 0.300157,0 0.552785,-0.194338 0.6449679,-0.4632367 A 0.68416543,0.68416543 0 0 1 3.3496551,5.9667315 0.68416543,0.68416543 0 0 1 2.6654891,5.2825661 0.68416543,0.68416543 0 0 1 3.1269451,4.6358157 l 2.572747,-1.9081798 c -0.00536,0.00773 -0.00745,0.017028 -0.012467,0.024943 a 0.68416543,0.68416543 0 0 1 0.510447,-0.2289455 z" />
  </g>
  <g
     inkscape:groupmode="layer"
     id="layer4"
     inkscape:label="mute"
     style="display:none">
    <path
       id="path1247-7-1"
       style="display:inline;opacity:0.999904;fill:#000000;fill-opacity:1;stroke-width:0.218042"
       inkscape:transform-center-x="0.77388414"
       inkscape:transform-center-y="0.0013624308"
       d="M 6.1753621,2.5286992 A 0.68416543,0.68416543 0 0 1 6.8595275,3.2128645 0.68416543,0.68416543 0 0 1 6.7846965,3.523768 C 6.8103715,3.488887 6.8378615,3.455147 6.8568555,3.4150848 L 6.8541855,7.237681 C 6.8407745,7.202431 6.8183735,7.173349 6.7998445,7.14147 A 0.68416543,0.68416543 0 0 1 6.8372612,7.3632893 0.68416543,0.68416543 0 0 1 6.1530956,8.0474547 0.68416543,0.68416543 0 0 1 5.6061195,7.7730763 c 0.016351,0.034131 0.027897,0.070318 0.049887,0.101556 L 3.0360401,5.9245831 c 0.09011,0.042035 0.188307,0.063924 0.287742,0.064141 0.300157,0 0.552785,-0.194338 0.6449679,-0.4632367 A 0.68416543,0.68416543 0 0 1 3.3273451,5.9717972 0.68416543,0.68416543 0 0 1 2.6431791,5.2876318 0.68416543,0.68416543 0 0 1 3.1046351,4.6408815 l 2.572747,-1.9081798 c -0.00536,0.00773 -0.00745,0.017028 -0.012467,0.024943 a 0.68416543,0.68416543 0 0 1 0.510447,-0.2289455 z" />
  </g>
  <g
     inkscape:groupmode="layer"
     id="layer7"
     inkscape:label="Next"
     style="display:none">
    <path
       id="path1247-8"
       style="display:inline;fill:#000000;fill-opacity:1;stroke-width:0.169128"
       inkscape:transform-center-x="-0.64240301"
       inkscape:transform-center-y="0.00098788224"
       d="m 3.9891195,3.3 a 0.5679273,0.49588375 0 0 0 -0.5679272,0.4958837 0.5679273,0.49588375 0 0 0 0.062118,0.225343 c -0.021315,-0.025282 -0.044132,-0.049736 -0.0599,-0.078775 l 0.00221,2.7706213 c 0.01113,-0.025548 0.029728,-0.046628 0.045109,-0.069732 A 0.5679273,0.49588375 0 0 0 3.4396729,6.8041162 0.5679273,0.49588375 0 0 0 4.0076002,7.3 0.5679273,0.49588375 0 0 0 4.4616464,7.1011303 c -0.013572,0.024739 -0.023159,0.050968 -0.041411,0.073609 L 6.5950777,5.76134 C 6.5202727,5.791807 6.4387639,5.807673 6.3562226,5.80783 6.1070618,5.80783 5.8973548,5.6669735 5.8208333,5.4720755 A 0.5679273,0.49588375 0 0 0 6.3532648,5.7955607 0.5679273,0.49588375 0 0 0 6.9211923,5.299677 0.5679273,0.49588375 0 0 0 6.5381369,4.8309118 L 4.4024937,3.4478612 c 0.00445,0.0056 0.00619,0.012342 0.010349,0.018078 A 0.5679273,0.49588375 0 0 0 3.9891195,3.3 Z" />
  </g>
  <g
     inkscape:groupmode="layer"
     id="layer3"
     inkscape:label="Shuffle"
     style="display:none">
    <circle
       style="fill:#000000;stroke-width:0.148638"
       id="path49"
       cx="3.801542"
       cy="3.8038228"
       r="0.74319184" />
    <circle
       style="fill:#000000;stroke-width:0.148638"
       id="path49-0"
       cx="3.7968383"
       cy="6.7798295"
       r="0.74319184" />
    <circle
       style="fill:#000000;stroke-width:0.148638"
       id="path49-3"
       cx="6.7826629"
       cy="3.80896"
       r="0.74319184" />
    <circle
       style="fill:#000000;stroke-width:0.148638"
       id="path49-8"
       cx="6.760778"
       cy="6.7796612"
       r="0.74319184" />
    <circle
       style="fill:#000000;stroke-width:0.148638"
       id="path49-6"
       cx="5.2902479"
       cy="5.2967434"
       r="0.74319184" />
  </g>
  <g
     inkscape:groupmode="layer"
     id="layer8"
     inkscape:label="Prev"
     style="display:none">
    <path
       id="path1247-8-0"
       style="display:inline;fill:#000000;fill-opacity:1;stroke-width:0.169128"
       inkscape:transform-center-x="0.64240301"
       inkscape:transform-center-y="0.00098788224"
       d="m 6.3296305,3.3 a 0.5679273,0.49588375 0 0 1 0.5679272,0.4958837 0.5679273,0.49588375 0 0 1 -0.062118,0.225343 c 0.021315,-0.025282 0.044132,-0.049736 0.0599,-0.078775 l -0.00221,2.7706214 c -0.01113,-0.025548 -0.029728,-0.046628 -0.045109,-0.069732 A 0.5679273,0.49588375 0 0 1 6.8790771,6.8041163 0.5679273,0.49588375 0 0 1 6.3111498,7.2999999 0.5679273,0.49588375 0 0 1 5.8571036,7.1011304 c 0.013572,0.024739 0.023159,0.050968 0.041411,0.073609 L 3.7236724,5.76134 c 0.074805,0.030467 0.1563137,0.046333 0.238855,0.04649 0.2491607,0 0.4588678,-0.1408565 0.5353893,-0.3357545 A 0.5679273,0.49588375 0 0 1 3.9654852,5.7955607 0.5679273,0.49588375 0 0 1 3.3975576,5.299677 0.5679273,0.49588375 0 0 1 3.7806131,4.8309118 L 5.9162563,3.4478612 c -0.00445,0.0056 -0.00619,0.012342 -0.010349,0.018078 A 0.5679273,0.49588375 0 0 1 6.3296305,3.3 Z" />
  </g>
</svg>
