<?xml version="1.0" encoding="UTF-8" standalone="no"?>
<svg
   width="40"
   height="40"
   viewBox="0 0 10.583333 10.583334"
   version="1.1"
   id="svg8"
   inkscape:version="1.2.1 (9c6d41e410, 2022-07-14, custom)"
   sodipodi:docname="play.svg"
   inkscape:export-filename="../res/img/unmute.png"
   inkscape:export-xdpi="96"
   inkscape:export-ydpi="96"
   xmlns:inkscape="http://www.inkscape.org/namespaces/inkscape"
   xmlns:sodipodi="http://sodipodi.sourceforge.net/DTD/sodipodi-0.dtd"
   xmlns="http://www.w3.org/2000/svg"
   xmlns:svg="http://www.w3.org/2000/svg"
   xmlns:rdf="http://www.w3.org/1999/02/22-rdf-syntax-ns#"
   xmlns:cc="http://creativecommons.org/ns#"
   xmlns:dc="http://purl.org/dc/elements/1.1/">
  <defs
     id="defs2" />
  <sodipodi:namedview
     id="base"
     pagecolor="#4e4e4e"
     bordercolor="#666666"
     borderopacity="1.0"
     inkscape:pageopacity="0"
     inkscape:pageshadow="2"
     inkscape:zoom="15.734375"
     inkscape:cx="15.030785"
     inkscape:cy="19.797418"
     inkscape:document-units="mm"
     inkscape:current-layer="svg8"
     inkscape:document-rotation="0"
     showgrid="true"
     units="px"
     inkscape:window-width="1910"
     inkscape:window-height="1046"
     inkscape:window-x="0"
     inkscape:window-y="0"
     inkscape:window-maximized="1"
     showguides="true"
     guidetolerance="1"
     gridtolerance="1"
     objecttolerance="1"
     inkscape:showpageshadow="0"
     inkscape:pagecheckerboard="0"
     inkscape:deskcolor="#d1d1d1">
    <inkscape:grid
       type="xygrid"
       id="grid46" />
  </sodipodi:namedview>
  <metadata
     id="metadata5">
    <rdf:RDF>
      <cc:Work
         rdf:about="">
        <dc:format>image/svg+xml</dc:format>
        <dc:type
           rdf:resource="http://purl.org/dc/dcmitype/StillImage" />
      </cc:Work>
    </rdf:RDF>
  </metadata>
  <g
     inkscape:groupmode="layer"
     id="layer2"
     inkscape:label="Pause"
     style="display:none;fill:#ffffff">
    <rect
       style="fill:#ffffff;stroke-width:0.264583"
       id="rect160"
       width="1.3229166"
       height="5.2916665"
       x="6.0854168"
       y="2.6458333"
       rx="0.5"
       ry="0.5" />
    <rect
       style="fill:#ffffff;stroke-width:0.264583"
       id="rect160-1"
       width="1.3229166"
       height="5.2916665"
       x="3.175"
       y="2.6458333"
       rx="0.5"
       ry="0.5" />
  </g>
  <g
     inkscape:label="Play"
     inkscape:groupmode="layer"
     id="layer1"
     style="display:inline">
    <path
       id="path1247"
       style="fill:#ffffff;fill-opacity:1;stroke-width:0.218042"
       inkscape:transform-center-x="-0.77388414"
       inkscape:transform-center-y="0.0013624308"
       d="M 4.4079714,2.5594621 A 0.68416542,0.68416542 0 0 0 3.723806,3.2436275 0.68416542,0.68416542 0 0 0 3.7986372,3.554531 C 3.7729615,3.5196504 3.745472,3.4859096 3.7264786,3.4458478 l 0.00267,3.8225963 c 0.013412,-0.03525 0.035812,-0.064332 0.054341,-0.096211 a 0.68416542,0.68416542 0 0 0 -0.037417,0.2218193 0.68416542,0.68416542 0 0 0 0.6841656,0.6841654 0.68416542,0.68416542 0 0 0 0.546976,-0.2743786 c -0.01635,0.034131 -0.027897,0.070318 -0.049887,0.1015562 L 7.5472931,5.9553459 c -0.090114,0.042035 -0.1883065,0.063924 -0.2877417,0.064141 -0.3001566,0 -0.5527847,-0.1943381 -0.6449681,-0.4632369 A 0.68416542,0.68416542 0 0 0 7.2559883,6.00256 0.68416542,0.68416542 0 0 0 7.9401537,5.3183947 0.68416542,0.68416542 0 0 0 7.4786983,4.6716445 L 4.9059512,2.7634647 c 0.00536,0.00773 0.00745,0.017028 0.012467,0.024943 A 0.68416542,0.68416542 0 0 0 4.4079714,2.5594621 Z" />
  </g>
</svg>
