<?xml version="1.0" encoding="UTF-8" standalone="no"?>
<svg
   width="30"
   height="30"
   viewBox="0 0 7.9374997 7.9375005"
   version="1.1"
   id="svg8"
   inkscape:version="1.2.1 (9c6d41e410, 2022-07-14, custom)"
   sodipodi:docname="prev.svg"
   inkscape:export-filename="../res/img/accept.png"
   inkscape:export-xdpi="96"
   inkscape:export-ydpi="96"
   xmlns:inkscape="http://www.inkscape.org/namespaces/inkscape"
   xmlns:sodipodi="http://sodipodi.sourceforge.net/DTD/sodipodi-0.dtd"
   xmlns="http://www.w3.org/2000/svg"
   xmlns:svg="http://www.w3.org/2000/svg"
   xmlns:rdf="http://www.w3.org/1999/02/22-rdf-syntax-ns#"
   xmlns:cc="http://creativecommons.org/ns#"
   xmlns:dc="http://purl.org/dc/elements/1.1/">
  <defs
     id="defs2">
    <inkscape:perspective
       sodipodi:type="inkscape:persp3d"
       inkscape:vp_x="-3.490039 : 7.0492872 : 1"
       inkscape:vp_y="0 : 2135.7657 : 0"
       inkscape:vp_z="13.958012 : 7.0492872 : 1"
       inkscape:persp3d-origin="5.2339865 : 4.223847 : 1"
       id="perspective96" />
  </defs>
  <sodipodi:namedview
     id="base"
     pagecolor="#4b4b4b"
     bordercolor="#666666"
     borderopacity="1.0"
     inkscape:pageopacity="0"
     inkscape:pageshadow="2"
     inkscape:zoom="22.251767"
     inkscape:cx="1.3706777"
     inkscape:cy="14.897693"
     inkscape:document-units="mm"
     inkscape:current-layer="svg8"
     inkscape:document-rotation="0"
     showgrid="true"
     units="px"
     inkscape:window-width="1910"
     inkscape:window-height="1046"
     inkscape:window-x="0"
     inkscape:window-y="0"
     inkscape:window-maximized="1"
     showguides="false"
     inkscape:snap-others="false"
     inkscape:object-nodes="false"
     inkscape:snap-nodes="false"
     inkscape:snap-global="false"
     inkscape:showpageshadow="0"
     inkscape:pagecheckerboard="0"
     inkscape:deskcolor="#d1d1d1">
    <inkscape:grid
       type="xygrid"
       id="grid46" />
  </sodipodi:namedview>
  <metadata
     id="metadata5">
    <rdf:RDF>
      <cc:Work
         rdf:about="">
        <dc:format>image/svg+xml</dc:format>
        <dc:type
           rdf:resource="http://purl.org/dc/dcmitype/StillImage" />
      </cc:Work>
    </rdf:RDF>
  </metadata>
  <g
     inkscape:groupmode="layer"
     id="layer8"
     inkscape:label="Prev"
     style="display:inline">
    <path
       id="path1247-8-1"
       style="display:inline;fill:#ffffff;fill-opacity:1;stroke-width:0.107635"
       inkscape:transform-center-x="0.41307585"
       inkscape:transform-center-y="0.00062223222"
       d="M 4.6353717,2.7207162 A 0.36518673,0.3123456 0 0 1 5.0005583,3.0330618 0.36518673,0.3123456 0 0 1 4.9606153,3.175 c 0.013706,-0.015925 0.028378,-0.031328 0.038517,-0.049619 l -0.00142,1.7451496 c -0.00716,-0.016092 -0.019116,-0.02937 -0.029006,-0.043922 a 0.36518673,0.3123456 0 0 1 0.01997,0.101268 A 0.36518673,0.3123456 0 0 1 4.6234896,5.2402222 0.36518673,0.3123456 0 0 1 4.3315303,5.1149588 c 0.00873,0.015583 0.014892,0.032104 0.026628,0.046365 L 2.9596974,4.2710562 c 0.048101,0.019191 0.1005124,0.029184 0.1535878,0.029283 0.1602146,0 0.2950597,-0.088722 0.3442643,-0.2114839 A 0.36518673,0.3123456 0 0 1 3.1151868,4.2926116 0.36518673,0.3123456 0 0 1 2.75,3.980266 0.36518673,0.3123456 0 0 1 2.996311,3.6850018 L 4.3695652,2.8138505 c -0.00286,0.00353 -0.00398,0.00777 -0.00665,0.011387 A 0.36518673,0.3123456 0 0 1 4.6353717,2.7207162 Z" />
  </g>
</svg>
