<?xml version="1.0" encoding="UTF-8" standalone="no"?>
<svg
   width="60"
   height="60"
   viewBox="0 0 60 60"
   version="1.1"
   id="svg253"
   sodipodi:docname="sidebar.svg"
   inkscape:export-filename="../res/img/sidebar.png"
   inkscape:export-xdpi="96"
   inkscape:export-ydpi="96"
   inkscape:version="1.2.1 (9c6d41e410, 2022-07-14, custom)"
   xmlns:inkscape="http://www.inkscape.org/namespaces/inkscape"
   xmlns:sodipodi="http://sodipodi.sourceforge.net/DTD/sodipodi-0.dtd"
   xmlns="http://www.w3.org/2000/svg"
   xmlns:svg="http://www.w3.org/2000/svg">
  <defs
     id="defs257" />
  <sodipodi:namedview
     id="namedview255"
     pagecolor="#505050"
     bordercolor="#eeeeee"
     borderopacity="1"
     inkscape:showpageshadow="0"
     inkscape:pageopacity="0"
     inkscape:pagecheckerboard="0"
     inkscape:deskcolor="#505050"
     showgrid="false"
     inkscape:zoom="12.713191"
     inkscape:cx="19.90059"
     inkscape:cy="30.008202"
     inkscape:window-width="1910"
     inkscape:window-height="1046"
     inkscape:window-x="0"
     inkscape:window-y="0"
     inkscape:window-maximized="1"
     inkscape:current-layer="g973" />
  <g
     id="g973"
     transform="translate(12.332443,1.173695)"
     style="fill:#ffffff">
    <path
       id="path249"
       style="fill:#ffffff;stroke-width:1.42182;stroke:none"
       d="m 12.13992,22.780966 c -0.496381,-0.01967 -0.989979,0.198477 -1.311253,0.576853 -0.296173,0.345341 -0.438276,0.81925 -0.381504,1.270514 0.0484,0.43838 0.297059,0.820525 0.618558,1.111969 0.992234,0.992417 1.984468,1.984833 2.976703,2.977249 -1.051889,1.059123 -2.119401,2.104954 -3.161556,3.172356 -0.24968,0.292616 -0.383994,0.666625 -0.395303,1.049821 0.0029,0.412183 0.152862,0.821537 0.433956,1.126662 0.283697,0.310618 0.689061,0.50456 1.110125,0.532041 0.421071,0.0269 0.848897,-0.115389 1.170947,-0.389936 1.461003,-1.436165 2.901276,-2.896931 4.353534,-4.343302 0.607814,-0.596822 0.618177,-1.66674 0.02025,-2.273865 -1.452758,-1.453461 -2.901689,-2.911806 -4.361975,-4.357278 -0.286118,-0.278662 -0.67598,-0.437343 -1.072482,-0.453084 z" />
    <path
       fill-rule="evenodd"
       d="m 6.5378509,13.711461 c -1.3038598,0 -3.9851384,2.681279 -3.9851384,3.985139 v 22.259411 c 0,1.303188 2.6819515,3.985138 3.9851384,3.985138 H 28.797263 c 1.30386,0 3.985138,-2.681278 3.985138,-3.985138 V 17.6966 c 0,-1.30386 -2.681278,-3.985139 -3.985138,-3.985139 z M 6.2005871,17.6966 c 0,-0.186266 0.1509981,-0.337264 0.3372638,-0.337264 H 21.714724 V 40.293275 H 6.5378509 c -0.1862657,0 -0.3372638,-0.150998 -0.3372638,-0.337264 z M 23.738305,40.293275 V 17.359336 h 5.058958 c 0.186266,0 0.337264,0.150998 0.337264,0.337264 v 22.259411 c 0,0.186266 -0.150998,0.337264 -0.337264,0.337264 z"
       id="path251"
       style="fill:#ffffff;stroke-width:1.35027;stroke-dasharray:none;stroke:none"
       sodipodi:nodetypes="sssssssssssccsssccssssc" />
  </g>
</svg>
