<?xml version="1.0" encoding="UTF-8" standalone="no"?>
<svg
   width="30"
   height="30"
   viewBox="0 0 7.9374997 7.9375005"
   version="1.1"
   id="svg8"
   inkscape:version="1.2.1 (9c6d41e410, 2022-07-14, custom)"
   sodipodi:docname="up.svg"
   inkscape:export-filename="../res/img/up.png"
   inkscape:export-xdpi="96"
   inkscape:export-ydpi="96"
   xmlns:inkscape="http://www.inkscape.org/namespaces/inkscape"
   xmlns:sodipodi="http://sodipodi.sourceforge.net/DTD/sodipodi-0.dtd"
   xmlns="http://www.w3.org/2000/svg"
   xmlns:svg="http://www.w3.org/2000/svg"
   xmlns:rdf="http://www.w3.org/1999/02/22-rdf-syntax-ns#"
   xmlns:cc="http://creativecommons.org/ns#"
   xmlns:dc="http://purl.org/dc/elements/1.1/">
  <defs
     id="defs2">
    <inkscape:perspective
       sodipodi:type="inkscape:persp3d"
       inkscape:vp_x="-3.490039 : 7.0492872 : 1"
       inkscape:vp_y="0 : 2135.7657 : 0"
       inkscape:vp_z="13.958012 : 7.0492872 : 1"
       inkscape:persp3d-origin="5.2339865 : 4.223847 : 1"
       id="perspective96" />
  </defs>
  <sodipodi:namedview
     id="base"
     pagecolor="#4b4b4b"
     bordercolor="#666666"
     borderopacity="1.0"
     inkscape:pageopacity="0"
     inkscape:pageshadow="2"
     inkscape:zoom="22.251767"
     inkscape:cx="9.9542657"
     inkscape:cy="14.897693"
     inkscape:document-units="mm"
     inkscape:current-layer="layer7"
     inkscape:document-rotation="0"
     showgrid="true"
     units="px"
     inkscape:window-width="1910"
     inkscape:window-height="1046"
     inkscape:window-x="0"
     inkscape:window-y="0"
     inkscape:window-maximized="1"
     showguides="false"
     inkscape:snap-others="false"
     inkscape:object-nodes="false"
     inkscape:snap-nodes="false"
     inkscape:snap-global="false"
     inkscape:showpageshadow="0"
     inkscape:pagecheckerboard="0"
     inkscape:deskcolor="#d1d1d1">
    <inkscape:grid
       type="xygrid"
       id="grid46" />
  </sodipodi:namedview>
  <metadata
     id="metadata5">
    <rdf:RDF>
      <cc:Work
         rdf:about="">
        <dc:format>image/svg+xml</dc:format>
        <dc:type
           rdf:resource="http://purl.org/dc/dcmitype/StillImage" />
      </cc:Work>
    </rdf:RDF>
  </metadata>
  <g
     inkscape:groupmode="layer"
     id="layer7"
     inkscape:label="Next"
     style="display:inline">
    <path
       id="path1247-8"
       style="display:inline;fill:#ffffff;fill-opacity:1;stroke-width:0.107635"
       inkscape:transform-center-x="0.0011631844"
       inkscape:transform-center-y="-0.41216253"
       d="m 2.7159511,4.6940545 a 0.31234559,0.36518672 0.3 0 0 0.3104266,0.3668192 0.31234559,0.36518672 0.3 0 0 0.1421459,-0.039197 c -0.015982,0.013633 -0.031472,0.028208 -0.049828,0.038251 l 1.745144,0.00772 c -0.016053,-0.00726 -0.029259,-0.019286 -0.043759,-0.029249 A 0.31234559,0.36518672 0.3 0 0 4.9212356,5.0589034 0.31234559,0.36518672 0.3 0 0 5.2354891,4.695355 0.31234559,0.36518672 0.3 0 0 5.1117567,4.402743 c 0.015532,0.00881 0.032025,0.015066 0.046224,0.026861 L 4.2750444,3.0265195 c 0.018933,0.048205 0.02866,0.1006626 0.02848,0.1537384 -8.36e-4,0.1602131 -0.090256,0.2945936 -0.2132827,0.3431527 A 0.31234559,0.36518672 0.3 0 0 4.295785,3.1821195 0.31234559,0.36518672 0.3 0 0 3.9853556,2.8153013 0.31234559,0.36518672 0.3 0 0 3.6888068,3.0600635 l -0.878332,1.3686729 c 0.00355,-0.00284 0.00778,-0.00396 0.011417,-0.00659 A 0.31234559,0.36518672 0.3 0 0 2.715956,4.6940466 Z" />
  </g>
</svg>
